<mxfile host="app.diagrams.net" modified="2023-05-31T14:53:25.394Z" agent="Mozilla/5.0 (Windows NT 10.0; Win64; x64) AppleWebKit/537.36 (KHTML, like Gecko) Chrome/113.0.0.0 Safari/537.36" version="21.3.6" etag="E-QA2lOYl_2mG9ONce9k" type="github">
  <diagram name="Page-1" id="ku1RCg__Z8RLZrUs5bY8">
    <mxGraphModel>
      <root>
        <mxCell id="0" />
        <mxCell id="1" parent="0" />
      </root>
    </mxGraphModel>
  </diagram>
</mxfile>
